<svg id="Layer_1" data-name="Layer 1" xmlns="http://www.w3.org/2000/svg" viewBox="0 0 770.62 734.07"><defs><style>.cls-1{fill:#ffefea;}.cls-2{fill:#f2f2f2;}.cls-3,.cls-4,.cls-5,.cls-6{fill:none;stroke:#000;stroke-miterlimit:10;}.cls-3{stroke-width:4px;}.cls-4{stroke-width:3px;}.cls-6{stroke-width:2px;}</style></defs><title>miya-3</title><path class="cls-1" d="M711.71,65.63c15,14.7,12.18,75.41,11.69,80.3s-36.56,2.91-42.93.62-12.21-26-12.21-26L703.55,64.8C707.48,58.6,711.71,65.63,711.71,65.63Z" transform="translate(-11 -29.55)"/><path class="cls-2" d="M593,312.31c5.95-.88,12.44-3.22,13.61-5.07,2-3.1,8-14,2-19.58s-27.75-2.8-27.75-2.8a15.07,15.07,0,0,0-3.75,4.57,16.1,16.1,0,0,0-1.15,11.42,22.29,22.29,0,0,0,7.58,10.66C585.2,312.83,589,312.9,593,312.31Zm-9.88,24.29a41.45,41.45,0,0,0,8.34,20.28c2.38,3,4.25,5.36,6.37,5.16,4.8-.45,7.54-13.61,9.17-25.92l.2-1.28a49.24,49.24,0,0,1-13.26-4.24l-1.22-.25A42.62,42.62,0,0,1,583.08,336.6Zm60.5-233,0-.29,21.06-12.71c15.85-26.43,44.93-53.17,44.93-53.17s3.59-2.94,9.79,1,24.9,80,24.9,80l16.44,49.46-7.83-4.08,17.46,36.45-15.69-4.95c3.12,7.46,6.13,15.46,8.92,24a322.8,322.8,0,0,1,13.63,61.65l-12.81-8.68A159.17,159.17,0,0,1,779,322l-17.48-15.42a64.58,64.58,0,0,1,6.61,42.92l-11-13.53a209.1,209.1,0,0,1-4.68,81.89q-4.28-8.81-8.56-17.61s-.35,36.23-2.81,44.23-3.58-13.55-3.58-13.55-.5,21.38-6.55,32.31l-1.13-21.55a116.87,116.87,0,0,1-18.53,68.2c.2-11.21,0-24.4-2.36-24.71-2.77-.37-5.09,17.55-12.87,37.27q-2.36,6-5.06,11.44l-.27.54v0l-68,10.56c6.46,13,12.76,24.88,18.83,35.65-2.22,1.81-4.17,3.32-5.74,4.53a186.06,186.06,0,0,1-38.61,23.19,172.69,172.69,0,0,1-38.11,11.74q-5.31-17.68-11.87-38.38l-61,20.28A280.88,280.88,0,0,0,494,629.84l-1.7.57a335.62,335.62,0,0,1-83.71,1.14c-6-.67-11.83-1.49-17.45-2.42a336,336,0,0,1-59.64-15.62l-2.44,0A127.5,127.5,0,0,1,319,637.9a150.45,150.45,0,0,1-32.21,40.81,302.34,302.34,0,0,0,12,32.81c2.22,5.15,4.52,10.07,6.85,14.76a201.43,201.43,0,0,1,24.67,9.16c10.85,4.86,12.72,6.87,12.73,8.69s-2.14,4.8-16.52,9.19c-22,6.73-43.56,13.32-59.32,2.73-3-2-6.16-6.39-12.4-15.09-6.12-8.53-9.88-15.22-22-38-10.9-20.36-11.36-21.51-14-25a92.41,92.41,0,0,0-25.91-22.92s-5.08-3.46-23.86-18.41c-20.81-16.58-31.81-36.67-36.39-45-22.5-40.76-19.32-81.92-18-94a192.75,192.75,0,0,1,7-36.19c5.26-17.17,14.57-36.51,31.55-51.83A79.41,79.41,0,0,1,185,392c16.94-5.19,37.54-7.38,68.1-15.23,28.33-7.27,69.35-20.48,117.45-46.27l.5.27q8.1-14.87,15.37-29.22s-21.47,14.32-24.21,27.24,4-54,22.66-68.61c0,0-8.17-4.12-13.41,5.25s3.62-35.91,25.26-51.86c0,0-16.23,5-21.31,12.69s10.71-35.19,38.4-68.66l4.16-6.62.45-4.46s-9.12-24-8.46-30.52S417,45.8,424.5,36.66s16.81-3.25,16.81-3.25,43.23,29.09,76.48,75.3c0,0,31.2-20.18,125-5.27Zm79.82,42.37c.49-4.89,3.32-65.6-11.69-80.3,0,0-4.23-7-8.16-.83l-35.29,55.79s5.85,23.67,12.21,26S722.9,150.83,723.4,145.93ZM659.33,258.16c.73-7.21-3.8-13.57-10.11-14.2s-12,4.69-12.74,11.9,3.8,13.57,10.11,14.21S658.6,265.37,659.33,258.16Zm-114.41,6.6a13.12,13.12,0,1,0-14.38,11.74A13.12,13.12,0,0,0,544.92,264.76ZM492.81,127.62c1.48-14.68-45-60.58-45-60.58l-8.16-.83c-8.16-.82-4.29,58.92-2.18,70.67s12.71,21.06,12.71,21.06S491.32,142.31,492.81,127.62Z" transform="translate(-11 -29.55)"/><path class="cls-2" d="M641.54,580.59c-6.07-10.77-12.37-22.62-18.83-35.65l68-10.56v0c5.82,15.36,14.37,38.27,24.3,66.27,35,98.56,31.63,104.2,29.57,105.38-10.5,6-53.26-50.38-63.72-64.41l-1.74-2.36A567,567,0,0,1,641.54,580.59Z" transform="translate(-11 -29.55)"/><path d="M649.22,244c6.31.63,10.84,7,10.11,14.2s-6.43,12.54-12.74,11.91-10.84-7-10.11-14.21S642.91,243.32,649.22,244Z" transform="translate(-11 -29.55)"/><path d="M593,312.31c-4,.59-7.76.52-9.48-.8a22.29,22.29,0,0,1-7.58-10.66,16.1,16.1,0,0,1,1.15-11.42,15.07,15.07,0,0,1,3.75-4.57s21.71-2.75,27.75,2.8,0,16.48-2,19.58C605.4,309.09,598.91,311.43,593,312.31Z" transform="translate(-11 -29.55)"/><path class="cls-2" d="M559.08,620.05c31.25,104.1,30.67,131.64,22.33,134.49-12.43,4.24-48.1-44.28-66.73-77.92A279.37,279.37,0,0,1,486.26,602l61-20.28Q553.8,602.4,559.08,620.05Z" transform="translate(-11 -29.55)"/><path d="M533.18,250.39a13.12,13.12,0,1,1-14.37,11.74A13.12,13.12,0,0,1,533.18,250.39Z" transform="translate(-11 -29.55)"/><path class="cls-1" d="M447.81,67s46.48,45.9,45,60.58-42.63,30.32-42.63,30.32-10.6-9.31-12.71-21.06-6-71.49,2.18-70.67Z" transform="translate(-11 -29.55)"/><path class="cls-2" d="M378.39,738.07c-1.82-1.41-15.8-16.56-16.6-17.44-14.34-15.59-30.23-52.94-41.24-81.91L319,637.9a127.5,127.5,0,0,0,10.06-24.44l2.44,0a336,336,0,0,0,59.64,15.62q3,21.3,5.64,43.27,2.18,17.8,4,35.24s3.41,12.93,24.08,18.75c8,2.25,11.23,5.19,11.44,8.18.35,4.77-9,10-14.79,12.08-17.41,6.35-35.3-3.34-43.27-8.47Z" transform="translate(-11 -29.55)"/><path class="cls-2" d="M214.88,260.38a80.7,80.7,0,0,1,20.85,16.55c-.92-.43-12.5-5.74-20-.42a9.17,9.17,0,0,0-3.46,4c-1.89,4.66,1.63,9.84,6.21,16.39a73.5,73.5,0,0,0,8.69,10.28c-2.92-.8-22.57-5.8-41,5.86-1.43.91-22.71,15.47-21.83,41.44.79,23,18.37,35.92,20.62,37.5a79.41,79.41,0,0,0-31.74,17.75c-17,15.32-26.29,34.66-31.55,51.83-11.86-2.94-54.83-15.18-84-56.39-34.09-48.09-23.5-99-21.5-107.89,2.86-7.92,20.79-55.14,73.34-76.53,37.46-15.25,71.42-8.78,83.29-6l-28.08,8c7.68,1,15.75,2.28,24.14,3.92a380.73,380.73,0,0,1,37.56,9.36A136.69,136.69,0,0,1,192.71,238c-3.65.34-7.11.51-10.34.56a91,91,0,0,1,19.3,4.54,88.65,88.65,0,0,1,22.7,12c-4.41-1.71-19.12-7.06-23.84-1.8a4.09,4.09,0,0,0-.5.66A82.49,82.49,0,0,1,214.88,260.38Z" transform="translate(-11 -29.55)"/><path class="cls-3" d="M415.57,174.24,417.92,151l.45-4.46s-9.12-24-8.46-30.52S417,45.8,424.5,36.66s16.81-3.25,16.81-3.25,43.23,29.09,76.48,75.3c0,0,31.2-20.18,125-5.27l.76.12q8.56,1.38,17.83,3.15" transform="translate(-11 -29.55)"/><path class="cls-3" d="M641.54,580.59c-2.22,1.81-4.17,3.32-5.74,4.53a186.06,186.06,0,0,1-38.61,23.19,172.69,172.69,0,0,1-38.11,11.74" transform="translate(-11 -29.55)"/><path class="cls-3" d="M691,533.86l-.27.54" transform="translate(-11 -29.55)"/><path class="cls-3" d="M643.63,103.27l21.06-12.71c15.85-26.43,44.93-53.17,44.93-53.17s3.59-2.94,9.79,1,24.9,80,24.9,80l16.44,49.46-7.83-4.08,17.46,36.45-15.69-4.95c3.12,7.46,6.13,15.46,8.92,24a322.8,322.8,0,0,1,13.63,61.65l-12.81-8.68A159.17,159.17,0,0,1,779,322l-17.48-15.42a64.58,64.58,0,0,1,6.61,42.92l-11-13.53a209.1,209.1,0,0,1-4.68,81.89q-4.28-8.81-8.56-17.61s-.35,36.23-2.81,44.23-3.58-13.55-3.58-13.55-.5,21.38-6.55,32.31l-1.13-21.55a116.87,116.87,0,0,1-18.53,68.2c.2-11.21,0-24.4-2.36-24.71-2.77-.37-5.09,17.55-12.87,37.27q-2.36,6-5.06,11.44" transform="translate(-11 -29.55)"/><path class="cls-3" d="M690.74,534.38v0c5.82,15.36,14.37,38.27,24.3,66.27,35,98.56,31.63,104.2,29.57,105.38-10.5,6-53.26-50.38-63.72-64.41l-1.74-2.36a567,567,0,0,1-37.62-58.69c-6.07-10.77-12.37-22.62-18.83-35.65" transform="translate(-11 -29.55)"/><path class="cls-3" d="M547.21,581.67q6.59,20.73,11.87,38.38c31.25,104.1,30.67,131.64,22.33,134.49-12.43,4.24-48.1-44.28-66.73-77.92A279.37,279.37,0,0,1,486.26,602" transform="translate(-11 -29.55)"/><path class="cls-3" d="M407.72,419.83c-7.41-6.91-15.68-17.22-18.52-31.66-2.94-14.95,1.43-26.74-1.58-27.92-4.48-1.75-18.39,22.73-23.54,34.64a11.45,11.45,0,0,1-1,2c-.63-.31,24.78-56.48,18.54-61.37-2.27-1.78-9.24,2.87-26.74,23.86q7.72-13.23,15.5-27.45l.63-1.16q8.1-14.87,15.37-29.22s-21.47,14.32-24.21,27.24,4-54,22.66-68.61c0,0-8.17-4.12-13.41,5.25s3.62-35.91,25.26-51.86c0,0-16.23,5-21.31,12.69s10.71-35.19,38.4-68.66l4.16-6.62q1.33-2.12,2.66-4.23" transform="translate(-11 -29.55)"/><path class="cls-3" d="M122.15,461.67l-.49-.12c-11.86-2.94-54.83-15.18-84-56.39-34.09-48.09-23.5-99-21.5-107.89,2.86-7.92,20.79-55.14,73.34-76.53,37.46-15.25,71.42-8.78,83.29-6l-28.08,8c7.68,1,15.75,2.28,24.14,3.92a380.73,380.73,0,0,1,37.56,9.36A136.69,136.69,0,0,1,192.71,238c-3.65.34-7.11.51-10.34.56a91,91,0,0,1,19.3,4.54,88.65,88.65,0,0,1,22.7,12c-4.41-1.71-19.12-7.06-23.84-1.8a4.09,4.09,0,0,0-.5.66,82.49,82.49,0,0,1,14.85,6.41,80.7,80.7,0,0,1,20.85,16.55c-.92-.43-12.5-5.74-20-.42a9.17,9.17,0,0,0-3.46,4c-1.89,4.66,1.63,9.84,6.21,16.39a73.5,73.5,0,0,0,8.69,10.28c-2.92-.8-22.57-5.8-41,5.86-1.43.91-22.71,15.47-21.83,41.44.79,23,18.37,35.92,20.62,37.5l.05,0" transform="translate(-11 -29.55)"/><path class="cls-4" d="M549.24,288.27a10.72,10.72,0,0,0,6.85,3.29,10.41,10.41,0,0,0,6.21-2c8.55-5.58,8.63-13.61,16.83-19.74a21.66,21.66,0,0,1,26.44-.63c8.41,5.42,8.27,11.56,16.38,16.57a27.33,27.33,0,0,0,9.72,3.64" transform="translate(-11 -29.55)"/><path class="cls-5" d="M544.92,264.76a13.12,13.12,0,1,1-11.74-14.37A13.13,13.13,0,0,1,544.92,264.76Z" transform="translate(-11 -29.55)"/><path class="cls-6" d="M659.33,258.16c-.73,7.21-6.43,12.54-12.74,11.91s-10.84-7-10.11-14.21,6.43-12.54,12.74-11.9S660.06,251,659.33,258.16Z" transform="translate(-11 -29.55)"/><path class="cls-5" d="M580.8,284.86s21.71-2.75,27.75,2.8,0,16.48-2,19.58c-1.17,1.85-7.66,4.19-13.61,5.07-4,.59-7.76.52-9.48-.8a22.29,22.29,0,0,1-7.58-10.66,16.1,16.1,0,0,1,1.15-11.42A15.07,15.07,0,0,1,580.8,284.86Z" transform="translate(-11 -29.55)"/><path class="cls-3" d="M593,311.55c0,.25,0,.51,0,.76.1,5.85.18,11.7.28,17.55l-.56.49A42.85,42.85,0,0,1,556.76,340" transform="translate(-11 -29.55)"/><path class="cls-3" d="M630.14,331s-8.67,6.17-23,3.88a49.24,49.24,0,0,1-13.26-4.24" transform="translate(-11 -29.55)"/><path class="cls-3" d="M447.81,67s46.48,45.9,45,60.58-42.63,30.32-42.63,30.32-10.6-9.31-12.71-21.06-6-71.49,2.18-70.67Z" transform="translate(-11 -29.55)"/><path class="cls-3" d="M703.55,64.8l-35.29,55.79s5.85,23.67,12.21,26,42.43,4.28,42.93-.62,3.32-65.6-11.69-80.3C711.71,65.63,707.48,58.6,703.55,64.8Z" transform="translate(-11 -29.55)"/><path class="cls-3" d="M492.34,630.41a335.62,335.62,0,0,1-83.71,1.14c-6-.67-11.83-1.49-17.45-2.42a336,336,0,0,1-59.64-15.62" transform="translate(-11 -29.55)"/><path class="cls-3" d="M370.5,330.47c-48.1,25.79-89.12,39-117.45,46.27-30.56,7.85-51.16,10-68.1,15.23a79.41,79.41,0,0,0-31.74,17.75c-17,15.32-26.29,34.66-31.55,51.83a192.75,192.75,0,0,0-7,36.19c-1.34,12.12-4.52,53.28,18,94,4.58,8.28,15.58,28.37,36.39,45,18.78,14.95,23.86,18.41,23.86,18.41a92.41,92.41,0,0,1,25.91,22.92c2.62,3.44,3.08,4.59,14,25,12.16,22.73,15.92,29.42,22,38,6.24,8.7,9.36,13,12.4,15.09,15.76,10.59,37.32,4,59.32-2.73,14.38-4.39,16.53-7.27,16.52-9.19s-1.88-3.83-12.73-8.69a201.43,201.43,0,0,0-24.67-9.16c-2.33-4.69-4.63-9.61-6.85-14.76a302.34,302.34,0,0,1-12-32.81A150.45,150.45,0,0,0,319,637.9a127.5,127.5,0,0,0,10.06-24.44,109.87,109.87,0,0,0,4-41.36c-2.59-27-14.6-46.87-22.27-57.4" transform="translate(-11 -29.55)"/><path class="cls-3" d="M391.08,628.41c0,.24.07.48.1.72q3,21.3,5.64,43.27,2.18,17.8,4,35.24s3.41,12.93,24.08,18.75c8,2.25,11.23,5.19,11.44,8.18.35,4.77-9,10-14.79,12.08-17.41,6.35-35.3-3.34-43.27-8.47l-.86-.56" transform="translate(-11 -29.55)"/><path class="cls-3" d="M378.58,738.14s0,0,0,0-.08,0-.19-.1c-1.82-1.41-15.8-16.56-16.6-17.44-14.34-15.59-30.23-52.94-41.24-81.91" transform="translate(-11 -29.55)"/><path class="cls-4" d="M583.08,336.6a41.45,41.45,0,0,0,8.34,20.28c2.38,3,4.25,5.36,6.37,5.16,4.8-.45,7.54-13.61,9.17-25.92" transform="translate(-11 -29.55)"/></svg>